<svg width="109" height="24" viewBox="0 0 109 24" fill="none" xmlns="http://www.w3.org/2000/svg">
<path d="M44 6.22C43.7333 6.22 43.5333 6.24 43.4 6.28C43.28 6.30667 43.1733 6.36667 43.08 6.46C43 6.54 42.9267 6.65333 42.86 6.8C42.8067 6.93333 42.78 7.06 42.78 7.18L41.68 7.16C41.7067 6.53333 41.9067 6.03333 42.28 5.66C42.48 5.47333 42.7133 5.34 42.98 5.26C43.26 5.16667 43.6067 5.11333 44.02 5.1H48.42C49.18 5.1 49.8667 5.25333 50.48 5.56C51.0933 5.85333 51.5733 6.27333 51.92 6.82C52.28 7.36667 52.46 8 52.46 8.72C52.46 9.38667 52.32 9.96667 52.04 10.46C51.7733 10.94 51.4067 11.26 50.94 11.42C50.9267 11.42 50.8867 11.44 50.82 11.48C50.7667 11.5067 50.6067 11.56 50.34 11.64C50.42 11.6667 50.5133 11.6933 50.62 11.72C50.74 11.7467 50.86 11.7867 50.98 11.84C51.6467 12.1467 52.1667 12.6133 52.54 13.24C52.9133 13.8533 53.1 14.5667 53.1 15.38C53.1 16.6867 52.6133 17.6533 51.64 18.28C50.68 18.8933 49.3133 19.2 47.54 19.2C46.42 19.2 45.5933 19.1667 45.06 19.1L44 18.98V6.22ZM47.88 18.1C50.56 18.1 51.9 17.18 51.9 15.34C51.9 14.3933 51.58 13.6533 50.94 13.12C50.3 12.5733 49.5 12.3 48.54 12.3H46.64V11.2H48.4C49.2667 11.2 49.96 10.98 50.48 10.54C51 10.1 51.26 9.48667 51.26 8.7C51.26 7.92667 51.0267 7.33333 50.56 6.92C50.1067 6.49333 49.4867 6.26 48.7 6.22H45.2V18L47.16 18.08L47.88 18.1ZM55.7822 19.26C55.6222 19.26 55.4489 19.24 55.2622 19.2C55.0755 19.16 54.9289 19.1067 54.8222 19.04L55.4622 18.12C55.5555 18.1867 55.6622 18.2067 55.7822 18.18C55.9555 18.14 56.2289 17.9133 56.6022 17.5C56.9089 17.1533 57.1889 16.8133 57.4422 16.48C58.0022 15.7867 58.3755 15.3533 58.5622 15.18C58.7089 15.0467 58.8822 14.9533 59.0822 14.9C58.9889 14.9 58.7489 14.9067 58.3622 14.92C57.9889 14.92 57.6155 14.86 57.2422 14.74C56.8822 14.6067 56.5422 14.3933 56.2222 14.1C55.9022 13.82 55.6622 13.5 55.5022 13.14C55.3422 12.7667 55.2622 12.38 55.2622 11.98C55.2622 11.2467 55.5089 10.6133 56.0022 10.08C56.5889 9.45333 57.3755 9.09333 58.3622 9H63.0622V19H61.8622V14.8C61.5022 14.8 61.0555 14.9067 60.5222 15.12C59.9889 15.3333 59.5755 15.6133 59.2822 15.96L58.8422 16.54C58.6822 16.74 58.4022 17.0867 58.0022 17.58C57.6022 18.0733 57.3222 18.4 57.1622 18.56C56.6689 19.0267 56.2089 19.26 55.7822 19.26ZM56.8022 12.96C57.0822 13.3467 57.4222 13.5933 57.8222 13.7C58.2355 13.7933 58.8422 13.8333 59.6422 13.82L61.8622 13.8V10.1L59.6022 10.08C59.0155 10.0667 58.5689 10.0867 58.2622 10.14C57.9555 10.18 57.6889 10.26 57.4622 10.38C57.1289 10.5533 56.8755 10.78 56.7022 11.06C56.5422 11.34 56.4622 11.64 56.4622 11.96C56.4622 12.32 56.5755 12.6533 56.8022 12.96ZM68.8128 19.3C68.1195 19.3 67.4328 19.1933 66.7528 18.98C66.0861 18.7667 65.5128 18.4533 65.0328 18.04L65.7528 17.3C66.0328 17.54 66.4595 17.7533 67.0328 17.94C67.6061 18.1133 68.1928 18.2 68.7928 18.2C69.4328 18.2 70.0061 18.0933 70.5128 17.88C71.0195 17.6667 71.4128 17.38 71.6928 17.02C71.9861 16.66 72.1328 16.26 72.1328 15.82C72.1328 15.2733 71.9261 14.8 71.5128 14.4C71.1128 14 70.5795 13.8 69.9128 13.8H67.5328V12.78L69.8928 12.8C70.3728 12.8 70.7795 12.6667 71.1128 12.4C71.4461 12.1333 71.6128 11.8067 71.6128 11.42C71.6128 10.8867 71.3061 10.4933 70.6928 10.24C70.0795 9.98667 69.4061 9.86 68.6728 9.86C67.7261 9.86 66.8195 10 65.9528 10.28L65.7128 9.26C66.7795 8.91333 67.8595 8.74 68.9528 8.74C69.7661 8.74 70.4595 8.86667 71.0328 9.12C71.6195 9.37333 72.0595 9.7 72.3528 10.1C72.6595 10.5 72.8128 10.9267 72.8128 11.38C72.8128 11.7533 72.7128 12.1133 72.5128 12.46C72.3261 12.7933 72.0861 13.0467 71.7928 13.22C72.3128 13.5667 72.6928 13.9467 72.9328 14.36C73.1861 14.7733 73.3195 15.2533 73.3328 15.8C73.3461 16.5467 73.1395 17.1867 72.7128 17.72C72.2861 18.24 71.7261 18.6333 71.0328 18.9C70.3395 19.1667 69.5995 19.3 68.8128 19.3ZM79.3641 19.2C78.4441 19.2 77.6574 18.9667 77.0041 18.5C76.3507 18.0333 75.8574 17.4133 75.5241 16.64C75.1907 15.8667 75.0241 15.0133 75.0241 14.08C75.0241 13.0533 75.2241 12.1467 75.6241 11.36C76.0241 10.56 76.5974 9.94 77.3441 9.5C78.0907 9.06 78.9641 8.84 79.9641 8.84C80.2707 8.84 80.6574 8.86 81.1241 8.9C81.5907 8.92667 82.0041 8.96667 82.3641 9.02H83.5641V17.28C83.5641 17.5467 83.6241 17.7533 83.7441 17.9C83.8774 18.0333 84.0374 18.1 84.2241 18.1C84.4641 18.1 84.6574 17.9867 84.8041 17.76L85.6641 18.44C85.4641 18.72 85.2374 18.9133 84.9841 19.02C84.7441 19.14 84.4641 19.2 84.1441 19.2C83.6774 19.2 83.2641 19.04 82.9041 18.72C82.5574 18.4 82.3841 18.0133 82.3841 17.56C82.0641 18.0933 81.6441 18.5 81.1241 18.78C80.6041 19.06 80.0174 19.2 79.3641 19.2ZM79.3841 18.12C79.9841 18.12 80.5241 17.9733 81.0041 17.68C81.4841 17.3867 81.8441 17 82.0841 16.52C82.2707 16.1333 82.3641 15.7067 82.3641 15.24V10L81.0441 9.96L79.8841 9.92C78.6707 9.92 77.7574 10.3 77.1441 11.06C76.5307 11.82 76.2241 12.8133 76.2241 14.04C76.2241 15.1733 76.4907 16.14 77.0241 16.94C77.5707 17.7267 78.3574 18.12 79.3841 18.12ZM95.5819 17.32C95.5819 17.5067 95.6419 17.6667 95.7619 17.8C95.8952 17.92 96.0485 17.98 96.2219 17.98C96.4885 17.98 96.6819 17.8667 96.8019 17.64L97.6819 18.3C97.5752 18.5267 97.3885 18.72 97.1219 18.88C96.8552 19.0267 96.5552 19.1 96.2219 19.1C95.6885 19.1 95.2485 18.9333 94.9019 18.6C94.5552 18.2667 94.3819 17.8333 94.3819 17.3V14.62H88.8619V19H87.6419L87.6219 11.88C87.6219 10.8267 87.3419 10.0533 86.7819 9.56L87.5819 8.76C87.9019 8.96 88.1885 9.28 88.4419 9.72C88.6952 10.1467 88.8219 10.6067 88.8219 11.1V13.52H94.3819V9H95.5819V17.32ZM99.6336 11.86C99.6336 10.8067 99.3536 10.0333 98.7936 9.54L99.5936 8.74C99.9136 8.94 100.2 9.26 100.454 9.7C100.707 10.1267 100.834 10.5867 100.834 11.08V12.54L104.314 12.52C104.94 12.52 105.494 12.6733 105.974 12.98C106.467 13.2733 106.847 13.68 107.114 14.2C107.38 14.7067 107.514 15.2667 107.514 15.88C107.514 16.9067 107.254 17.6867 106.734 18.22C106.214 18.74 105.427 19 104.374 19H99.6336V11.86ZM104.314 17.86C104.954 17.86 105.447 17.6733 105.794 17.3C106.14 16.9133 106.314 16.4533 106.314 15.92C106.314 15.3467 106.147 14.8267 105.814 14.36C105.48 13.8933 105.04 13.66 104.494 13.66H100.834V17.88L104.314 17.86Z" fill="#634E42"/>
<path d="M36.7639 13.6735C36.7639 13.5046 36.7639 13.3542 36.7882 13.1954C36.8541 12.4959 37.0744 11.8201 36.9755 11.1105C36.8298 10.1636 36.4261 9.27215 35.8067 8.52886C35.2622 7.8936 34.7818 7.13668 34.0639 6.67036C32.85 5.87966 30.6129 5.62116 29.1823 5.54006C28.5459 5.50458 26.5811 5.52485 25.9516 6.11281C25.003 6.39328 24.1238 6.77512 23.033 6.69571C22.3272 6.64333 21.5642 6.65347 20.8862 6.49634C20.0971 6.31387 19.4121 6.02665 18.5849 6.01651C17.789 6.00637 16.9826 6.33077 16.256 6.61123C15.3304 6.95023 14.337 7.07684 13.353 6.98124C12.46 6.9238 11.5287 6.70078 10.6356 6.8748C9.64719 7.06741 8.68994 8.08451 7.76564 8.53393C6.84135 8.98335 5.69682 9.67607 5.49045 10.7675C5.24074 12.082 6.43036 12.7578 6.93673 13.7884C7.37026 14.6552 7.13095 15.6334 7.8038 16.4106C8.47664 17.1878 9.51019 17.5747 10.209 18.3367C10.9651 19.1612 11.716 19.5819 12.7166 20.0583C13.5265 20.4435 13.9132 22.1331 14.6259 22.3189C15.304 22.4879 15.786 21.0873 16.7762 21.2275C17.8167 21.3745 18.8277 21.4894 19.9098 21.366C20.5255 21.2951 21.0145 21.1126 21.5798 20.9572C22.2977 20.7595 23.033 20.9825 23.7457 21.0264C25.1435 21.1143 26.0782 20.7764 27.299 20.2307C28.4141 19.7238 29.4147 19.4906 30.3147 20.3996C30.8921 20.9808 31.4072 21.6887 32.061 22.1922C32.7147 22.6957 32.8136 22.1077 32.8743 21.5755C32.9627 20.8203 33.1084 20.0651 33.5905 19.44C34.1818 18.6746 35.1789 18.3046 35.7165 17.4953C36.1414 16.8549 36.5975 16.3413 36.7137 15.5641C36.809 14.9373 36.7518 14.3037 36.7639 13.6735Z" fill="#CBBBA0"/>
<path d="M11.064 3.60549C11.064 5.59747 9.30558 7.21098 7.13617 7.21098C4.96676 7.21098 3.20834 5.59747 3.20834 3.60549C3.20834 1.61352 4.96676 0 7.13617 0C9.30558 0 11.064 1.61521 11.064 3.60549Z" fill="#AD8F75"/>
<path d="M35.6489 10.3366C35.5135 10.0137 35.3118 9.72114 35.0563 9.47682C34.8007 9.23249 34.4967 9.04156 34.1628 8.91572L34.0986 8.89375C34.2842 8.18077 33.7934 7.35796 33.6338 7.11635C32.8448 5.92015 31.291 5.00442 29.4719 4.66482C28.9298 4.55341 28.3783 4.49119 27.8245 4.47897C27.3853 4.47347 26.9484 4.54089 26.5325 4.67834C25.9541 4.86306 25.4223 5.16475 24.9718 5.56366C24.4516 5.0399 23.7059 4.77295 22.7712 4.77295C21.8888 4.79575 21.0192 4.9839 20.2099 5.32712C19.9588 5.09016 19.6575 4.90965 19.3272 4.7983C19.0486 4.70329 18.7553 4.65585 18.4601 4.65806C17.6936 4.65806 16.9341 4.94191 16.2057 5.21392C16.0063 5.28826 15.8104 5.36092 15.6213 5.42512C15.1735 5.59391 14.7 5.6887 14.2201 5.70558C14.0249 5.70608 13.8303 5.68281 13.6409 5.63631C12.9195 5.45553 12.3126 4.77295 11.8166 4.12755C11.7988 4.10504 11.7755 4.08727 11.7488 4.07588C11.7221 4.06449 11.6929 4.05984 11.6638 4.06237C11.6348 4.06489 11.6069 4.07451 11.5827 4.09033C11.5584 4.10616 11.5387 4.12767 11.5253 4.15289C11.5127 4.17684 11.5076 4.20388 11.5107 4.23062C11.5138 4.25737 11.5249 4.28263 11.5426 4.30326C12.1392 5.06862 12.8727 5.86778 13.8976 6.01308C14.0165 6.02954 14.1365 6.03744 14.2566 6.03673C14.9502 6.03673 15.6179 5.78499 16.2682 5.5417C16.4069 5.48932 16.5439 5.43694 16.6792 5.38964C17.2541 5.16193 17.8645 5.03055 18.4844 5.00104C18.9976 4.98683 19.4989 5.15362 19.896 5.47074C19.63 5.59397 19.3997 5.77999 19.2262 6.0119C19.0527 6.2438 18.9414 6.51426 18.9023 6.79872C18.8208 7.47454 19.1642 7.95606 19.7971 8.05743C19.9406 8.09022 20.0905 8.08546 20.2315 8.04362C20.3725 8.00178 20.4997 7.92436 20.6 7.8192C20.8272 7.57253 20.9313 7.14339 20.8792 6.68552C20.8364 6.28392 20.6843 5.90073 20.4388 5.57549C20.6902 5.48214 20.9467 5.40206 21.207 5.33557C22.4088 5.01794 23.288 5.03652 24.1065 5.38119C24.3468 5.48226 24.566 5.62542 24.7533 5.80358L24.7152 5.85426C24.6289 5.9559 24.5641 6.07316 24.5245 6.1993C24.4849 6.32543 24.4713 6.45794 24.4845 6.58921C24.5209 6.8021 24.6996 7.24138 25.0256 7.24138H25.0429C25.1647 7.23417 25.2795 7.18379 25.3658 7.09976C25.452 7.01572 25.5037 6.90383 25.5111 6.7852C25.529 6.60918 25.5098 6.43146 25.4546 6.26294C25.3995 6.09442 25.3095 5.93868 25.1903 5.80527C25.8389 5.14465 26.7979 4.79154 27.9649 4.79154C28.8084 4.8054 29.6435 4.95615 30.4361 5.23758C31.3094 5.53745 32.1094 6.01032 32.7859 6.62638C33.3807 7.17042 33.9443 8.01857 33.7813 8.79407C33.3385 8.66305 32.8741 8.61546 32.413 8.65384C31.8928 8.71128 31.5754 9.0323 31.5928 9.49861C31.6136 10.0241 31.9396 10.3907 32.3853 10.3907C32.4709 10.3902 32.5561 10.3782 32.6385 10.3552C33.2298 10.1863 33.7431 9.6456 33.9876 9.18267C34.2184 9.25702 34.4334 9.3715 34.6223 9.52058C35.5189 10.2606 35.7148 11.45 35.7218 12.3168C35.7067 13.0007 35.6124 13.6809 35.4408 14.3442C35.2674 15.1332 35.0056 16.0236 34.487 16.6454C34.2014 16.9905 33.7986 17.2248 33.3512 17.306C33.3512 17.23 33.3651 17.1472 33.3685 17.0661C33.3859 16.6403 33.313 15.8141 32.9229 15.4188C32.8566 15.3491 32.776 15.2939 32.6864 15.2566C32.5967 15.2194 32.5001 15.2009 32.4026 15.2025C32.3119 15.2021 32.2225 15.2233 32.1421 15.2642C32.0617 15.3051 31.9928 15.3646 31.9413 15.4374C31.6899 15.7753 31.6916 16.4139 31.7905 16.7282C31.8743 16.9775 32.0329 17.1966 32.2459 17.3572C32.459 17.5177 32.7165 17.6123 32.9853 17.6287C32.878 18.227 32.7077 18.813 32.4772 19.3774C32.4061 19.5632 32.3332 19.7457 32.2587 19.9299C32.0486 20.416 31.8747 20.9163 31.7384 21.4268C31.635 21.8795 31.6011 22.3447 31.6379 22.8072C31.1351 22.095 30.565 21.4304 29.9349 20.8219C29.5257 20.4198 29.1008 20.0431 28.6985 19.69L28.4626 19.4855C28.3014 19.347 28.1349 19.2051 27.9788 19.0547C28.4131 18.7239 28.7095 18.2509 28.8129 17.7233C28.8979 17.2165 28.7731 16.5744 28.2927 16.3193C28.1867 16.2617 28.0673 16.2314 27.9459 16.2315C27.4898 16.2315 27.0112 16.6521 26.8482 17.0441C26.5447 17.7757 27.195 18.6593 27.3944 18.9144L27.4846 19.0192C26.8976 19.3698 26.2375 19.588 25.5528 19.6579C25.1017 19.7348 24.6379 19.6958 24.2071 19.5447C24.1555 19.524 24.1062 19.4985 24.0597 19.4686C24.7533 18.8553 25.4296 17.8788 25.3325 17.1033C25.3064 16.9148 25.2307 16.7361 25.1128 16.5845C24.9949 16.433 24.8388 16.3137 24.6597 16.2382C24.5575 16.1857 24.4439 16.1579 24.3284 16.1571C23.7042 16.1571 23.2637 16.958 23.1822 17.1185C23.0182 17.4609 22.9503 17.8395 22.9854 18.2158C23.0204 18.5921 23.1571 18.9527 23.3816 19.2608C23.4331 19.338 23.4911 19.4109 23.555 19.4788C22.9637 19.8674 22.1851 20.0836 21.2382 20.1191C21.1446 20.1191 21.0509 20.1191 20.9573 20.1191C20.1058 20.1191 19.4382 19.9603 18.9162 19.6342C18.8815 19.6122 18.8468 19.5886 18.8087 19.5599C18.9301 19.4602 19.0428 19.3571 19.1434 19.2574C19.837 18.563 20.17 17.9058 20.1075 17.306C20.0771 17.0747 19.9608 16.8624 19.7806 16.7089C19.6004 16.5555 19.3688 16.4716 19.1295 16.4731C18.9923 16.4726 18.857 16.5032 18.7341 16.5626C18.1029 16.8667 17.867 17.7757 17.8324 18.264C17.8238 18.4991 17.8636 18.7335 17.9494 18.9534C18.0351 19.1734 18.1652 19.3744 18.3318 19.5447C17.6017 20.1022 16.8266 20.4198 16.1936 20.4198C15.9996 20.4217 15.8068 20.3891 15.6248 20.3235C16.0722 19.5599 16.1797 18.8857 15.9387 18.3738C15.8871 18.2467 15.7979 18.1374 15.6824 18.0597C15.567 17.9821 15.4304 17.9397 15.2901 17.9379C15.1484 17.9429 15.01 17.9808 14.8863 18.0484C14.7627 18.1159 14.6574 18.2113 14.5791 18.3265C14.1889 18.8638 14.4057 19.7068 14.8254 20.185C14.9221 20.2952 15.0335 20.3924 15.1566 20.4739C15.0154 20.6993 14.8919 20.9349 14.7872 21.1784C14.5496 21.7732 14.5271 22.3983 14.5063 23.0031C14.5063 23.1164 14.5063 23.2295 14.4924 23.3411C14.449 23.2718 14.4074 23.1991 14.3658 23.1299C14.1822 22.8076 13.9801 22.4957 13.7606 22.1955C13.5976 21.9827 13.4138 21.7749 13.2404 21.5738C13.0669 21.3727 12.9109 21.1886 12.7565 20.9875C12.6755 20.8834 12.6002 20.7751 12.5311 20.6631C12.7401 20.5951 12.9329 20.4867 13.0979 20.3445C13.263 20.2022 13.3969 20.029 13.4918 19.8353C13.7675 19.3149 13.8386 18.4346 13.2577 18.1356C13.1565 18.0823 13.0432 18.0545 12.9282 18.0545C12.5224 18.0545 12.1305 18.3924 11.938 18.6999C11.6519 19.1611 11.6814 19.744 12.023 20.4317C11.5252 20.4406 11.0413 20.271 10.6634 19.9552C10.3108 19.657 10.0513 19.2683 9.91427 18.8334C10.2014 18.8294 10.4829 18.7554 10.7331 18.6182C10.9834 18.481 11.1943 18.2848 11.3467 18.0477C11.749 17.4885 12.0611 16.5575 11.7975 15.8378C11.7459 15.686 11.6452 15.5545 11.5105 15.4631C11.3757 15.3717 11.2142 15.3254 11.0501 15.3309C10.9257 15.3315 10.8023 15.3538 10.686 15.3968C9.5397 15.8074 9.26917 17.2553 9.49808 18.4684C9.07431 18.3808 8.6739 18.2082 8.32233 17.9615C6.9038 16.9934 5.98298 15.4762 5.95696 14.0756C6.03162 14.0863 6.10694 14.092 6.1824 14.0925C7.24023 14.0925 8.31193 13.0788 8.43678 11.9653C8.4576 11.8121 8.44685 11.6564 8.40517 11.5073C8.36348 11.3582 8.29169 11.2187 8.19401 11.0969C8.13165 11.0286 8.0549 10.9743 7.96901 10.9375C7.88312 10.9008 7.7901 10.8826 7.69631 10.884H7.66683C6.78762 10.9145 6.11824 12.1884 5.93269 12.5736C5.76773 12.9216 5.66621 13.2949 5.63268 13.6769C4.86272 13.2714 4.52977 12.0329 4.45346 11.3419C4.44306 11.2456 4.43265 11.1425 4.42398 11.0361C4.36329 10.3603 4.28699 9.51551 3.71645 9.07454C3.47714 8.89207 3.13031 8.80252 2.65689 8.80252C2.37883 8.80678 2.10135 8.82879 1.82624 8.86841C1.73086 8.88024 1.63722 8.89544 1.54184 8.91234C1.39006 8.94128 1.23658 8.96102 1.08229 8.97147H1.07709C0.830844 8.97147 0.705985 8.76535 0.589798 8.53388C0.392864 8.20122 0.312509 7.81511 0.360891 7.43399C0.451852 7.02064 0.603717 6.62228 0.811768 6.25131C1.16551 5.57689 1.57131 4.92963 2.02567 4.31509C3.36095 2.4549 5.20261 1.30938 6.95236 1.24518C8.55644 1.18267 9.58825 2.45828 9.88479 3.71699C10.1813 4.9757 9.85878 6.50305 8.46626 7.17718C8.02237 7.3938 7.53376 7.50934 7.03733 7.51509C6.05754 7.51509 5.35348 7.05215 5.1055 6.24793C5.03244 6.01438 5.01136 5.76834 5.04365 5.52623C5.07595 5.28412 5.16088 5.0515 5.29279 4.84391C5.41693 4.66827 5.58575 4.52704 5.78273 4.43405C5.9797 4.34105 6.19809 4.29948 6.41651 4.3134C6.58636 4.31464 6.75557 4.3339 6.92115 4.37084C6.94434 4.37466 6.96809 4.37385 6.99094 4.36844C7.0138 4.36304 7.03529 4.35317 7.05411 4.33942C7.07293 4.32567 7.08868 4.30833 7.1004 4.28846C7.11212 4.2686 7.11958 4.24661 7.12231 4.22385C7.12799 4.18592 7.11859 4.14731 7.09602 4.1159C7.07346 4.0845 7.03944 4.06268 7.00092 4.0549C6.82501 4.01644 6.64535 3.99661 6.46507 3.99576C6.02633 3.97767 5.59778 4.1278 5.27133 4.41396C4.94488 4.70011 4.74652 5.09951 4.71879 5.52649C4.66352 6.05804 4.81982 6.58999 5.15541 7.01253C5.49101 7.43507 5.9803 7.71597 6.52229 7.79724C6.67533 7.81555 6.82939 7.82458 6.98357 7.82427C8.28071 7.82427 9.46166 7.16535 9.99231 6.14655C10.4969 5.17507 10.4467 3.85891 9.86225 2.7134C9.60247 2.17383 9.18808 1.71896 8.66902 1.4036C8.14996 1.08824 7.54838 0.925853 6.93675 0.935995C6.75039 0.936748 6.56433 0.950866 6.38009 0.978233C4.74827 1.21646 3.04014 2.36535 1.81757 4.0549C1.37824 4.64911 0.978002 5.26985 0.619278 5.9134C0.32274 6.45405 -0.0830486 7.19914 0.0157974 7.88003C0.0712899 8.26355 0.312336 9.04243 0.829109 9.24687C0.906671 9.27783 0.98981 9.29334 1.07362 9.29249C1.17138 9.2895 1.26877 9.27933 1.36496 9.26208L1.4534 9.24856C1.80227 9.18759 2.15523 9.15145 2.50949 9.14043H2.62394C2.9216 9.12046 3.21967 9.17331 3.49102 9.29418C3.83784 9.48172 3.93669 9.9852 4.01126 10.3535L4.0234 10.416C4.08062 10.6931 4.11704 10.9719 4.15346 11.2405C4.25751 12.0414 4.35635 12.7983 4.9529 13.4826C5.13641 13.6995 5.37156 13.8694 5.63788 13.9776C5.63788 15.1028 6.18934 16.3328 7.15699 17.3567C7.73619 17.9717 8.6761 18.6661 9.60039 18.7996C9.6652 19.0433 9.76072 19.2782 9.88479 19.499C10.1042 19.8627 10.4142 20.1665 10.7862 20.3824C11.1581 20.5982 11.5799 20.7192 12.0126 20.7341C12.0798 20.7342 12.1469 20.7308 12.2137 20.724C12.2796 20.8321 12.3525 20.9436 12.4305 21.0517C12.6282 21.3305 12.8554 21.5924 13.0739 21.8475C13.1745 21.9641 13.275 22.0807 13.3721 22.1989C13.6397 22.54 13.8803 22.9003 14.0918 23.2769C14.2201 23.4914 14.3537 23.7128 14.4941 23.9256C14.5094 23.9476 14.5297 23.9658 14.5535 23.9788C14.5773 23.9917 14.6039 23.9989 14.6311 24C14.6743 24.0002 14.7159 23.9847 14.748 23.9566C14.7801 23.9285 14.8002 23.8897 14.8046 23.8479C14.8358 23.5624 14.8462 23.2701 14.8548 22.9896C14.8587 22.6251 14.8859 22.2611 14.9363 21.8999C15.0278 21.4429 15.2054 21.0064 15.4601 20.6124C15.6755 20.6967 15.906 20.7386 16.1381 20.7358C17.1283 20.7358 18.1324 20.0785 18.5659 19.7575C18.6492 19.8282 18.7379 19.8925 18.8312 19.9501C19.4989 20.3692 20.3711 20.4266 20.9694 20.435H21.0631C21.9394 20.4606 22.8065 20.2545 23.5724 19.8386C23.6564 19.7912 23.7369 19.7381 23.8134 19.6798C24.1982 19.9259 24.6523 20.0488 25.1123 20.0312C26.0036 19.9995 26.8719 19.7471 27.6355 19.298L27.7135 19.249C28.0564 19.5938 28.4176 19.9209 28.7956 20.2289C29.0713 20.4604 29.3557 20.7003 29.6141 20.947C30.4519 21.7299 31.1775 22.6193 31.7714 23.5911C31.7845 23.615 31.804 23.635 31.8278 23.649C31.8516 23.6629 31.8788 23.6704 31.9066 23.6705C31.9318 23.6703 31.9567 23.6648 31.9794 23.6543C32.0022 23.6438 32.0223 23.6286 32.0384 23.6097C32.054 23.5907 32.0651 23.5686 32.0711 23.545C32.0771 23.5213 32.0778 23.4967 32.0731 23.4728C31.8043 22.1719 32.1546 21.05 32.5743 20.0312C32.9195 19.2616 33.1687 18.4545 33.3165 17.627C33.3668 17.627 33.4119 17.627 33.4552 17.6118C34.1801 17.4935 34.7662 16.9782 35.2015 16.0912C35.643 15.1142 35.9166 14.073 36.0114 13.0095C36.1349 12.103 36.0098 11.1808 35.6489 10.3366ZM33.6737 9.08636C33.4327 9.51213 32.8309 10.0832 32.3887 10.0832C32.3344 10.0845 32.2804 10.075 32.23 10.0552C32.1796 10.0355 32.1339 10.0059 32.0957 9.96831C31.9758 9.83386 31.9137 9.6596 31.9223 9.48172C31.9192 9.41353 31.9301 9.34542 31.9542 9.28134C31.9783 9.21725 32.0152 9.15845 32.0627 9.10833C32.2273 8.99131 32.4305 8.93776 32.6332 8.95796C32.7338 8.95796 32.8309 8.95796 32.9107 8.96978C33.1682 8.98601 33.4235 9.02503 33.6737 9.08636ZM25.114 6.88995C25.0915 6.91868 25.0741 6.91868 25.0689 6.91868C25.0637 6.91868 24.9926 6.90685 24.8834 6.74972C24.8314 6.66808 24.8044 6.57375 24.8053 6.4777C24.8097 6.31927 24.8711 6.16737 24.9788 6.04856C25.0744 6.17852 25.146 6.32375 25.1903 6.4777C25.2126 6.6212 25.1858 6.76786 25.114 6.89502V6.88995ZM20.5255 7.3191C20.501 7.44529 20.4292 7.5581 20.3241 7.63556C20.2189 7.71301 20.088 7.74957 19.9567 7.73811C19.866 7.73716 19.7758 7.72582 19.6879 7.70431C19.2578 7.59956 19.1676 7.15014 19.2405 6.76324C19.3168 6.31382 19.6099 5.96746 20.137 5.70389C20.3216 5.92868 20.4523 6.19084 20.5196 6.47118C20.5868 6.75152 20.5888 7.04296 20.5255 7.32417V7.3191ZM33.0338 17.1759C33.0338 17.2221 33.0304 17.2677 33.0234 17.3128C32.988 17.3113 32.9527 17.3079 32.9176 17.3026C32.7615 17.2789 32.6135 17.2187 32.4864 17.1272C32.3593 17.0357 32.2567 16.9156 32.1876 16.7772C32.1023 16.6153 32.0565 16.4363 32.0538 16.2543C32.0511 16.0724 32.0915 15.8922 32.172 15.728C32.2396 15.5945 32.3194 15.5252 32.4061 15.5252C32.5795 15.5252 32.7945 15.7871 32.8899 16.0321C33.017 16.4017 33.0659 16.7925 33.0338 17.181V17.1759ZM28.1193 18.4617C28.0144 18.5927 27.8952 18.7122 27.7638 18.8181C27.7048 18.7523 27.6545 18.6931 27.6094 18.6357C27.3453 18.309 27.178 17.9181 27.1256 17.5054C27.1178 17.3819 27.136 17.2583 27.1793 17.142C27.2225 17.0257 27.2899 16.9194 27.3771 16.8296C27.4506 16.7464 27.5412 16.6792 27.6431 16.6324C27.745 16.5855 27.8558 16.56 27.9684 16.5575C27.9996 16.5559 28.0309 16.5559 28.0621 16.5575C28.4366 16.6082 28.4991 17.1894 28.5095 17.3651C28.5209 17.7663 28.3822 18.1578 28.1193 18.4667V18.4617ZM25.0221 17.2334C25.0551 17.8906 24.403 18.7185 24.0128 19.1037C23.9573 19.1594 23.8966 19.2135 23.8273 19.2726C23.5817 19.0121 23.4149 18.6905 23.3452 18.3434C23.2593 17.918 23.3404 17.4766 23.5724 17.1066C23.7371 16.816 24.0267 16.5052 24.3493 16.5052C24.4872 16.5096 24.6191 16.561 24.7221 16.6505C24.8119 16.7212 24.8851 16.8098 24.9368 16.9103C24.9885 17.0108 25.0176 17.121 25.0221 17.2334ZM18.5815 19.3453C18.1393 18.8553 18.0717 18.1254 18.4081 17.4226C18.5 17.23 18.7549 16.7839 19.1572 16.7839C19.207 16.7843 19.2565 16.7905 19.3046 16.8025C19.3935 16.8202 19.4769 16.8579 19.5482 16.9124C19.6195 16.967 19.6768 17.0369 19.7156 17.1168C19.8561 17.4192 19.7382 17.8551 19.5821 18.1626C19.3266 18.6138 18.9874 19.0148 18.5815 19.3453ZM15.3265 18.1626V18.2285C15.5121 18.2285 15.6404 18.3856 15.7098 18.6931C15.8294 19.2321 15.6005 19.7068 15.3387 20.1647C15.1988 20.0714 15.0748 19.9574 14.971 19.8268C14.8565 19.6592 14.7801 19.4697 14.7469 19.271C14.7137 19.0722 14.7245 18.8689 14.7785 18.6745C14.8063 18.5537 14.8739 18.4451 14.971 18.3652C15.068 18.2853 15.1892 18.2385 15.3161 18.2319L15.3265 18.1626ZM13.0479 19.9468C12.8829 20.1557 12.6509 20.305 12.3889 20.3708C12.127 19.864 11.8357 18.9854 12.5848 18.4904C12.6868 18.4211 12.8074 18.3823 12.9317 18.3789C13.0073 18.3763 13.0822 18.3942 13.148 18.4306C13.2138 18.4669 13.268 18.5204 13.3045 18.585C13.549 18.9854 13.2958 19.6342 13.0479 19.9468ZM9.85011 18.4971C9.75805 17.9669 9.77514 17.4242 9.9004 16.9005C10.0027 16.4426 10.4709 15.6266 11.0345 15.6266C11.1215 15.6269 11.2074 15.646 11.286 15.6824C11.5062 15.777 11.5981 16.049 11.5652 16.5119C11.5381 17.0548 11.3326 17.5749 10.979 17.9953C10.8438 18.1586 10.6713 18.289 10.4754 18.3761C10.2794 18.4632 10.0653 18.5046 9.85011 18.4971ZM5.98298 13.7833C6.00469 13.4456 6.07835 13.113 6.20148 12.7966C6.35061 12.4181 7.22289 11.1848 7.74833 11.1848C7.90267 11.1848 8.01365 11.298 8.09516 11.5227C8.14654 11.7023 8.15982 11.8902 8.13418 12.0749C8.10854 12.2597 8.04452 12.4374 7.94602 12.5972C7.63672 13.1346 7.13371 13.541 6.53443 13.7377C6.35656 13.7935 6.16796 13.8091 5.98298 13.7833Z" fill="#634E42"/>
</svg>
