<svg width="20" height="18" viewBox="0 0 20 18" fill="none" xmlns="http://www.w3.org/2000/svg">
<path d="M17.3667 2.67498C16.941 2.24915 16.4357 1.91135 15.8795 1.68088C15.3232 1.45041 14.7271 1.33179 14.125 1.33179C13.5229 1.33179 12.9268 1.45041 12.3705 1.68088C11.8143 1.91135 11.309 2.24915 10.8833 2.67498L10 3.55831L9.11666 2.67498C8.25692 1.81523 7.09086 1.33223 5.875 1.33223C4.65914 1.33223 3.49307 1.81523 2.63333 2.67498C1.77359 3.53472 1.29059 4.70078 1.29059 5.91664C1.29059 7.1325 1.77359 8.29857 2.63333 9.15831L3.51666 10.0416L10 16.525L16.4833 10.0416L17.3667 9.15831C17.7925 8.73268 18.1303 8.22732 18.3608 7.6711C18.5912 7.11489 18.7099 6.51871 18.7099 5.91664C18.7099 5.31457 18.5912 4.7184 18.3608 4.16218C18.1303 3.60596 17.7925 3.10061 17.3667 2.67498V2.67498Z" stroke="#E55039" stroke-width="2" stroke-linecap="round" stroke-linejoin="round"/>
</svg>
