<svg width="24" height="24" viewBox="0 0 24 24" fill="none" xmlns="http://www.w3.org/2000/svg">
<path fill-rule="evenodd" clip-rule="evenodd" d="M2.51522 3.42774C2.68344 3.28524 2.90583 3.22397 3.1233 3.26021L9.1233 4.26021C9.48494 4.32048 9.75 4.63338 9.75 5.00001V20C9.75 20.2205 9.653 20.4298 9.48478 20.5723C9.31656 20.7148 9.09417 20.776 8.8767 20.7398L2.8767 19.7398C2.51506 19.6795 2.25 19.3666 2.25 19V4.00001C2.25 3.77954 2.347 3.57024 2.51522 3.42774ZM3.75 4.88535V18.3647L8.25 19.1147V5.63535L3.75 4.88535Z" fill="#E2BFA4"/>
<path fill-rule="evenodd" clip-rule="evenodd" d="M2.51522 3.42774C2.68344 3.28524 2.90583 3.22397 3.1233 3.26021L9.1233 4.26021C9.48494 4.32048 9.75 4.63338 9.75 5.00001V20C9.75 20.2205 9.653 20.4298 9.48478 20.5723C9.31656 20.7148 9.09417 20.776 8.8767 20.7398L2.8767 19.7398C2.51506 19.6795 2.25 19.3666 2.25 19V4.00001C2.25 3.77954 2.347 3.57024 2.51522 3.42774ZM3.75 4.88535V18.3647L8.25 19.1147V5.63535L3.75 4.88535Z" fill="black" fill-opacity="0.2"/>
<path fill-rule="evenodd" clip-rule="evenodd" d="M15.4848 3.42774C15.3166 3.28524 15.0942 3.22397 14.8767 3.26021L8.8767 4.26021C8.51506 4.32048 8.25 4.63338 8.25 5.00001V20C8.25 20.2205 8.347 20.4298 8.51522 20.5723C8.68344 20.7148 8.90583 20.776 9.1233 20.7398L15.1233 19.7398C15.4849 19.6795 15.75 19.3666 15.75 19V4.00001C15.75 3.77954 15.653 3.57024 15.4848 3.42774ZM14.25 4.88535V18.3647L9.75 19.1147V5.63535L14.25 4.88535Z" fill="#E2BFA4"/>
<path fill-rule="evenodd" clip-rule="evenodd" d="M15.4848 3.42774C15.3166 3.28524 15.0942 3.22397 14.8767 3.26021L8.8767 4.26021C8.51506 4.32048 8.25 4.63338 8.25 5.00001V20C8.25 20.2205 8.347 20.4298 8.51522 20.5723C8.68344 20.7148 8.90583 20.776 9.1233 20.7398L15.1233 19.7398C15.4849 19.6795 15.75 19.3666 15.75 19V4.00001C15.75 3.77954 15.653 3.57024 15.4848 3.42774ZM14.25 4.88535V18.3647L9.75 19.1147V5.63535L14.25 4.88535Z" fill="black" fill-opacity="0.2"/>
<path fill-rule="evenodd" clip-rule="evenodd" d="M14.5152 3.42774C14.6834 3.28524 14.9058 3.22397 15.1233 3.26021L21.1233 4.26021C21.4849 4.32048 21.75 4.63338 21.75 5.00001V6.00001C21.75 6.41422 21.4142 6.75001 21 6.75001C20.5858 6.75001 20.25 6.41422 20.25 6.00001V5.63535L15.75 4.88535V18.3647L20.25 19.1147V10C20.25 9.58579 20.5858 9.25001 21 9.25001C21.4142 9.25001 21.75 9.58579 21.75 10V20C21.75 20.2205 21.653 20.4298 21.4848 20.5723C21.3166 20.7148 21.0942 20.776 20.8767 20.7398L14.8767 19.7398C14.5151 19.6795 14.25 19.3666 14.25 19V4.00001C14.25 3.77954 14.347 3.57024 14.5152 3.42774Z" fill="#E2BFA4"/>
<path fill-rule="evenodd" clip-rule="evenodd" d="M14.5152 3.42774C14.6834 3.28524 14.9058 3.22397 15.1233 3.26021L21.1233 4.26021C21.4849 4.32048 21.75 4.63338 21.75 5.00001V6.00001C21.75 6.41422 21.4142 6.75001 21 6.75001C20.5858 6.75001 20.25 6.41422 20.25 6.00001V5.63535L15.75 4.88535V18.3647L20.25 19.1147V10C20.25 9.58579 20.5858 9.25001 21 9.25001C21.4142 9.25001 21.75 9.58579 21.75 10V20C21.75 20.2205 21.653 20.4298 21.4848 20.5723C21.3166 20.7148 21.0942 20.776 20.8767 20.7398L14.8767 19.7398C14.5151 19.6795 14.25 19.3666 14.25 19V4.00001C14.25 3.77954 14.347 3.57024 14.5152 3.42774Z" fill="black" fill-opacity="0.2"/>
</svg>
