<svg width="24" height="24" viewBox="0 0 24 24" fill="none" xmlns="http://www.w3.org/2000/svg">
<path fill-rule="evenodd" clip-rule="evenodd" d="M1.25 7C1.25 5.48122 2.48122 4.25 4 4.25H20C21.5188 4.25 22.75 5.48122 22.75 7V17C22.75 18.5188 21.5188 19.75 20 19.75H9C8.58579 19.75 8.25 19.4142 8.25 19C8.25 18.5858 8.58579 18.25 9 18.25H20C20.6904 18.25 21.25 17.6904 21.25 17V7C21.25 6.30964 20.6904 5.75 20 5.75H4C3.30964 5.75 2.75 6.30964 2.75 7V17C2.75 17.6904 3.30964 18.25 4 18.25H5C5.41421 18.25 5.75 18.5858 5.75 19C5.75 19.4142 5.41421 19.75 5 19.75H4C2.48122 19.75 1.25 18.5188 1.25 17V7Z" fill="#E2BFA4"/>
<path fill-rule="evenodd" clip-rule="evenodd" d="M1.25 7C1.25 5.48122 2.48122 4.25 4 4.25H20C21.5188 4.25 22.75 5.48122 22.75 7V17C22.75 18.5188 21.5188 19.75 20 19.75H9C8.58579 19.75 8.25 19.4142 8.25 19C8.25 18.5858 8.58579 18.25 9 18.25H20C20.6904 18.25 21.25 17.6904 21.25 17V7C21.25 6.30964 20.6904 5.75 20 5.75H4C3.30964 5.75 2.75 6.30964 2.75 7V17C2.75 17.6904 3.30964 18.25 4 18.25H5C5.41421 18.25 5.75 18.5858 5.75 19C5.75 19.4142 5.41421 19.75 5 19.75H4C2.48122 19.75 1.25 18.5188 1.25 17V7Z" fill="black" fill-opacity="0.2"/>
<path fill-rule="evenodd" clip-rule="evenodd" d="M2.39198 5.56094C2.6345 5.22514 3.10332 5.14953 3.43911 5.39205L12 11.5749L20.5609 5.39205C20.8967 5.14953 21.3655 5.22514 21.608 5.56094C21.8505 5.89673 21.7749 6.36555 21.4391 6.60806L12.4391 13.1081C12.177 13.2974 11.823 13.2974 11.5609 13.1081L2.56088 6.60806C2.22508 6.36555 2.14947 5.89673 2.39198 5.56094Z" fill="#E2BFA4"/>
<path fill-rule="evenodd" clip-rule="evenodd" d="M2.39198 5.56094C2.6345 5.22514 3.10332 5.14953 3.43911 5.39205L12 11.5749L20.5609 5.39205C20.8967 5.14953 21.3655 5.22514 21.608 5.56094C21.8505 5.89673 21.7749 6.36555 21.4391 6.60806L12.4391 13.1081C12.177 13.2974 11.823 13.2974 11.5609 13.1081L2.56088 6.60806C2.22508 6.36555 2.14947 5.89673 2.39198 5.56094Z" fill="black" fill-opacity="0.2"/>
</svg>
