<svg width="21" height="20" viewBox="0 0 21 20" fill="none" xmlns="http://www.w3.org/2000/svg">
<g clip-path="url(#clip0_0_111)">
<path d="M7.99999 18.3334C8.46023 18.3334 8.83332 17.9603 8.83332 17.5C8.83332 17.0398 8.46023 16.6667 7.99999 16.6667C7.53975 16.6667 7.16666 17.0398 7.16666 17.5C7.16666 17.9603 7.53975 18.3334 7.99999 18.3334Z" stroke="#26251C" stroke-width="2" stroke-linecap="round" stroke-linejoin="round"/>
<path d="M17.1667 18.3334C17.6269 18.3334 18 17.9603 18 17.5C18 17.0398 17.6269 16.6667 17.1667 16.6667C16.7064 16.6667 16.3333 17.0398 16.3333 17.5C16.3333 17.9603 16.7064 18.3334 17.1667 18.3334Z" stroke="#26251C" stroke-width="2" stroke-linecap="round" stroke-linejoin="round"/>
<path d="M1.33334 0.833313H4.66668L6.90001 11.9916C6.97621 12.3753 7.18493 12.7199 7.48963 12.9652C7.79433 13.2105 8.17559 13.3408 8.56668 13.3333H16.6667C17.0578 13.3408 17.439 13.2105 17.7437 12.9652C18.0484 12.7199 18.2571 12.3753 18.3333 11.9916L19.6667 4.99998H5.50001" stroke="#26251C" stroke-width="2" stroke-linecap="round" stroke-linejoin="round"/>
</g>
<defs>
<clipPath id="clip0_0_111">
<rect width="20" height="20" fill="white" transform="translate(0.5)"/>
</clipPath>
</defs>
</svg>
