<svg width="24" height="24" viewBox="0 0 24 24" fill="none" xmlns="http://www.w3.org/2000/svg">
<path fill-rule="evenodd" clip-rule="evenodd" d="M12 2.75C11.0319 2.75 10.0999 2.89847 9.22474 3.17334C8.82956 3.29746 8.40858 3.07772 8.28446 2.68254C8.16034 2.28736 8.38008 1.86638 8.77526 1.74227C9.79419 1.42224 10.8777 1.25 12 1.25C17.9371 1.25 22.75 6.06294 22.75 12C22.75 17.9371 17.9371 22.75 12 22.75C6.06294 22.75 1.25 17.9371 1.25 12C1.25 8.99296 2.48564 6.27316 4.47497 4.32299C4.77076 4.03302 5.24561 4.03774 5.53557 4.33353C5.82554 4.62932 5.82082 5.10417 5.52503 5.39414C3.81163 7.07382 2.75 9.41225 2.75 12C2.75 17.1086 6.89137 21.25 12 21.25C17.1086 21.25 21.25 17.1086 21.25 12C21.25 6.89137 17.1086 2.75 12 2.75Z" fill="#E2BFA4"/>
<path fill-rule="evenodd" clip-rule="evenodd" d="M12 2.75C11.0319 2.75 10.0999 2.89847 9.22474 3.17334C8.82956 3.29746 8.40858 3.07772 8.28446 2.68254C8.16034 2.28736 8.38008 1.86638 8.77526 1.74227C9.79419 1.42224 10.8777 1.25 12 1.25C17.9371 1.25 22.75 6.06294 22.75 12C22.75 17.9371 17.9371 22.75 12 22.75C6.06294 22.75 1.25 17.9371 1.25 12C1.25 8.99296 2.48564 6.27316 4.47497 4.32299C4.77076 4.03302 5.24561 4.03774 5.53557 4.33353C5.82554 4.62932 5.82082 5.10417 5.52503 5.39414C3.81163 7.07382 2.75 9.41225 2.75 12C2.75 17.1086 6.89137 21.25 12 21.25C17.1086 21.25 21.25 17.1086 21.25 12C21.25 6.89137 17.1086 2.75 12 2.75Z" fill="black" fill-opacity="0.2"/>
<path fill-rule="evenodd" clip-rule="evenodd" d="M12 2.75C11.0319 2.75 10.0999 2.89847 9.22474 3.17334C8.82956 3.29746 8.40858 3.07772 8.28446 2.68254C8.16034 2.28736 8.38008 1.86638 8.77526 1.74227C9.79419 1.42224 10.8777 1.25 12 1.25C17.9371 1.25 22.75 6.06294 22.75 12C22.75 17.9371 17.9371 22.75 12 22.75C6.06294 22.75 1.25 17.9371 1.25 12C1.25 8.99296 2.48564 6.27316 4.47497 4.32299C4.77076 4.03302 5.24561 4.03774 5.53557 4.33353C5.82554 4.62932 5.82082 5.10417 5.52503 5.39414C3.81163 7.07382 2.75 9.41225 2.75 12C2.75 17.1086 6.89137 21.25 12 21.25C17.1086 21.25 21.25 17.1086 21.25 12C21.25 6.89137 17.1086 2.75 12 2.75Z" stroke="#E2BFA4" stroke-width="0.2" stroke-linecap="round" stroke-linejoin="round"/>
<path fill-rule="evenodd" clip-rule="evenodd" d="M12 2.75C11.0319 2.75 10.0999 2.89847 9.22474 3.17334C8.82956 3.29746 8.40858 3.07772 8.28446 2.68254C8.16034 2.28736 8.38008 1.86638 8.77526 1.74227C9.79419 1.42224 10.8777 1.25 12 1.25C17.9371 1.25 22.75 6.06294 22.75 12C22.75 17.9371 17.9371 22.75 12 22.75C6.06294 22.75 1.25 17.9371 1.25 12C1.25 8.99296 2.48564 6.27316 4.47497 4.32299C4.77076 4.03302 5.24561 4.03774 5.53557 4.33353C5.82554 4.62932 5.82082 5.10417 5.52503 5.39414C3.81163 7.07382 2.75 9.41225 2.75 12C2.75 17.1086 6.89137 21.25 12 21.25C17.1086 21.25 21.25 17.1086 21.25 12C21.25 6.89137 17.1086 2.75 12 2.75Z" stroke="black" stroke-opacity="0.2" stroke-width="0.2" stroke-linecap="round" stroke-linejoin="round"/>
<path fill-rule="evenodd" clip-rule="evenodd" d="M11.4697 12.5303C11.329 12.3897 11.25 12.1989 11.25 12V5C11.25 4.58579 11.5858 4.25 12 4.25C12.4142 4.25 12.75 4.58579 12.75 5V11.25H19C19.4142 11.25 19.75 11.5858 19.75 12C19.75 12.4142 19.4142 12.75 19 12.75H12C11.8011 12.75 11.6103 12.671 11.4697 12.5303Z" fill="#E2BFA4"/>
<path fill-rule="evenodd" clip-rule="evenodd" d="M11.4697 12.5303C11.329 12.3897 11.25 12.1989 11.25 12V5C11.25 4.58579 11.5858 4.25 12 4.25C12.4142 4.25 12.75 4.58579 12.75 5V11.25H19C19.4142 11.25 19.75 11.5858 19.75 12C19.75 12.4142 19.4142 12.75 19 12.75H12C11.8011 12.75 11.6103 12.671 11.4697 12.5303Z" fill="black" fill-opacity="0.2"/>
<path fill-rule="evenodd" clip-rule="evenodd" d="M11.4697 12.5303C11.329 12.3897 11.25 12.1989 11.25 12V5C11.25 4.58579 11.5858 4.25 12 4.25C12.4142 4.25 12.75 4.58579 12.75 5V11.25H19C19.4142 11.25 19.75 11.5858 19.75 12C19.75 12.4142 19.4142 12.75 19 12.75H12C11.8011 12.75 11.6103 12.671 11.4697 12.5303Z" stroke="#E2BFA4" stroke-width="0.2" stroke-linecap="round" stroke-linejoin="round"/>
<path fill-rule="evenodd" clip-rule="evenodd" d="M11.4697 12.5303C11.329 12.3897 11.25 12.1989 11.25 12V5C11.25 4.58579 11.5858 4.25 12 4.25C12.4142 4.25 12.75 4.58579 12.75 5V11.25H19C19.4142 11.25 19.75 11.5858 19.75 12C19.75 12.4142 19.4142 12.75 19 12.75H12C11.8011 12.75 11.6103 12.671 11.4697 12.5303Z" stroke="black" stroke-opacity="0.2" stroke-width="0.2" stroke-linecap="round" stroke-linejoin="round"/>
</svg>
